PathFileType	3	(X/Y/Z)	D:\Jess\PFP\Labelled\PA26\20251029\SRRun01.trc
DataRate	CameraRate	NumFrames	NumMarkers	Units	OrigDataRate	OrigDataStartFrame	OrigNumFrames
250.0	250.0	4	37	mm	250.0	36875	2501
Frame#	Time	C7			T10			CLAV			LSHO			RSHO			LASIS			RASIS			LPSIS			RPSIS			LILCR			RILCR			LGTR			LTHI			LLTHI			LLEP			LMEP			LPSH			LLSH			LDSH			LLMAL			LMMAL			LTOE			L5TH			LHEE			RGTR			RTHI			RLTHI			RLEP			RMEP			RPSH			RLSH			RDSH			RLMAL			RMMAL			RTOE			R5TH			RHEE			
		X1	Y1	Z1	X2	Y2	Z2	X3	Y3	Z3	X4	Y4	Z4	X5	Y5	Z5	X6	Y6	Z6	X7	Y7	Z7	X8	Y8	Z8	X9	Y9	Z9	X10	Y10	Z10	X11	Y11	Z11	X12	Y12	Z12	X13	Y13	Z13	X14	Y14	Z14	X15	Y15	Z15	X16	Y16	Z16	X17	Y17	Z17	X18	Y18	Z18	X19	Y19	Z19	X20	Y20	Z20	X21	Y21	Z21	X22	Y22	Z22	X23	Y23	Z23	X24	Y24	Z24	X25	Y25	Z25	X26	Y26	Z26	X27	Y27	Z27	X28	Y28	Z28	X29	Y29	Z29	X30	Y30	Z30	X31	Y31	Z31	X32	Y32	Z32	X33	Y33	Z33	X34	Y34	Z34	X35	Y35	Z35	X36	Y36	Z36	X37	Y37	Z37	

1876	147.496	1032.976855091561	1408.182483357669	-310.742139828845	976.5092203429646	1207.35213057772	-311.1573476367713	1175.390512314613	1331.437033425302	-353.9956513461058	1048.196805857769	1391.441633999413	-473.2997430502477	1124.439806530854	1384.375875592471	-180.0720677917755	1113.491786334792	950.4897610325957	-458.2442496979831	1099.371248929693	949.5959248607327	-224.3893963384857	937.8691771268518	1028.030500956694	-376.1521736665467	934.9526444683754	1026.332720313995	-328.496456955259	1062.112932955587	1017.756319855736	-503.182253369269	1050.356484781754	1013.499182623827	-191.4555970725097	1069.787869430959	863.0010121988586	-520.624225418131	1180.68536138551	776.4774467245034	-421.0527746242983	1149.260821524509	622.4520957745416	-482.3550177748489	1195.969147192565	514.7881726765776	-464.0882501964986	nan	nan	nan	1210.530784748041	431.7217436419969	-411.1246543172992	1067.841853539186	378.1634524102206	-471.1756220297782	1033.031107278431	271.4033603595497	-422.6023476973112	938.0584043581705	240.1039279457611	-452.8814172600281	nan	nan	nan	1015.91444972714	123.032185765311	-442.1613145632658	963.0767542790853	130.6605430655361	-481.1653846080341	861.2611856795342	261.1974128634953	-399.9547740460557	996.8911625634685	896.9704541116677	-167.9974671281994	1083.222427279308	710.916932076933	-255.3924259797441	960.5983038438537	612.8921253836735	-209.5269312183723	934.1979849204496	464.8034585358711	-229.2498619010525	nan	nan	nan	939.2514985308745	378.735873897083	-290.7447924403144	821.4065250596329	305.8906485036033	-224.900689936406	820.9246687407323	198.8861485567633	-281.8832233295464	729.8626039161149	131.5425585798712	-257.5134489035792	nan	nan	nan	847.8178709461195	62.4166961746102	-289.5110776121674	802.6279309871799	45.76688173656259	-242.0945339692768	652.0055899454893	131.2795335405827	-301.2774642547385	
1877	147.5	1033.460642095976	1411.778148911568	-310.6265879710285	977.6519566227136	1210.812965036729	-309.7015395004821	1175.54873067824	1335.370796782188	-355.3311674571021	1047.028888186102	1394.925179984629	-473.0426983190684	1126.35353099773	1388.619097660718	-181.1374395703066	1114.460644192992	954.876113844944	-458.1251438750979	1100.489746580336	951.8654730493977	-224.4836327728679	939.1314758583595	1031.986295665024	-375.6338704769097	936.3127473706523	1030.060508949536	-328.0573397866218	1063.01891639003	1022.631757602084	-502.8034012505419	1052.711687439689	1016.544495387555	-191.9207082383435	1071.03071318658	868.0881411465563	-520.987854478578	1181.376004757347	781.7776778259561	-420.8826899206514	1150.810580454797	627.0434846317625	-481.6259839582655	1197.580019747491	518.863913139623	-463.0775502466875	nan	nan	nan	1214.241485863682	435.8963066729733	-409.4833268105101	1074.844405669452	375.608692297452	-470.667998938204	1043.987733841854	268.1226362070479	-421.5082447902853	950.6890353376687	232.6902690819558	-452.3200467118256	nan	nan	nan	1033.610380952375	119.440503771489	-441.0509171847716	980.6586347220033	124.6220524814021	-480.2725350638711	872.7163547036865	250.4768521115722	-399.6650126591816	997.0986419176427	899.8105885063029	-168.5083857068887	1079.780323381624	712.4350374782224	-256.5394779687679	954.7080950129231	616.8475785302644	-210.099741143994	924.9189502907418	469.3282699855259	-229.6667638725712	nan	nan	nan	929.6471199103307	383.0352439822091	-291.0487396274257	812.0177326358979	310.2509667336411	-225.2384837442088	812.5172077085268	202.7592485680371	-281.7890330559493	721.9674368978774	134.748188179449	-257.435973622589	nan	nan	nan	837.4966993736327	62.68999467076869	-289.6801395064438	792.2886482617648	46.57378061422315	-242.2432393915704	644.4225552521801	136.5060819958078	-301.5192523612458	
1878	147.504	1034.005142808321	1415.365965865455	-310.5331923500532	978.8283846012114	1214.30130226598	-308.2867765305287	1175.70913639765	1339.265488704232	-356.6454297515628	1045.971357236938	1398.395373625047	-472.7828857798597	1128.276763166886	1392.802779825961	-182.2527108701129	1115.495513184623	959.2871985170051	-458.026122530363	1101.671724857956	954.0954757092611	-224.6083084758236	940.4454743297505	1035.91150919761	-375.1067965055704	937.7341236394334	1033.759471890378	-327.6166346785367	1063.957900246968	1027.505024392063	-502.4114125815632	1055.061813297982	1019.573336084282	-192.4053362792172	1072.304145187695	873.18219606737	-521.3423355659667	1182.079297830506	786.981729861499	-420.7173079786895	1152.142233009776	631.558500158441	-480.9124896227605	1198.903816891539	522.7351925222833	-462.1428340374358	nan	nan	nan	1217.650023899789	439.923445983882	-407.8997216527492	1081.916689660598	373.0262679355197	-470.1949908465364	1055.03480701454	264.9739490135415	-420.3764543558253	963.6244736030151	225.4188611344668	-451.6922711337446	nan	nan	nan	1051.43431139317	116.2538324088466	-439.7438956088436	998.502125724975	118.932401528206	-479.1887116168043	884.607794201451	239.8458580383696	-399.3547282328734	997.4211952113781	902.6114908441646	-169.0236162723503	1076.437117590611	713.9476094492345	-257.6190716830398	948.9494489762739	620.8560457953124	-210.6405336876571	915.8412551576091	473.9839039942756	-230.0589219777756	nan	nan	nan	920.271084639209	387.4978054872936	-291.2985747174965	802.8197768159185	314.77593649804	-225.626797799501	804.4157132446688	206.7750389871716	-281.6494641385605	714.3793919224167	138.0888082023049	-257.3888760711458	nan	nan	nan	827.3027229460132	62.93313744239389	-289.8239178591031	782.0620690518986	47.4919502277874	-242.407112522101	637.2455188235983	141.9531843549377	-301.8490431024346	
1879	147.508	1034.605730574926	1418.930888685717	-310.460535272762	980.0292399402211	1217.801515224607	-306.9160211210598	1175.869469955306	1343.10533083178	-357.9358960923461	1045.021773913303	1401.839639207555	-472.5238146200198	1130.202229175888	1396.909254449505	-183.4162481839836	1116.589232287795	963.7065808678584	-457.9460725404023	1102.909864544796	956.2723111699461	-224.76436503357	941.8053872305803	1039.789715356513	-374.5671640716073	939.2114209087166	1037.415098644626	-327.1708290161029	1064.918263437773	1032.352528428641	-502.0089626873366	1057.399723593751	1022.569273849571	-192.9055664826906	1073.60406977341	878.271093878187	-521.6852855470206	1182.807397295707	792.07785559443	-420.5608696780287	1153.241148969526	635.9821323589997	-480.2151543163926	1199.954354931523	526.3900090013799	-461.2932952527887	nan	nan	nan	1220.76826870198	443.7889106443758	-406.3961700591743	1089.051146638366	370.4438437517428	-469.7571660493822	1066.155787013327	261.9798096862958	-419.2152748291258	976.8491975749874	218.3255065693307	-450.9993674726377	nan	nan	nan	1069.352659229575	113.5017386902183	-438.234837670257	1016.580004321962	113.6221406900701	-477.904548663133	896.9224440633242	229.3485105912257	-399.0264323907805	997.8518834807456	905.3604871088512	-169.5364386796985	1073.196884934664	715.4474415903687	-258.6213061014457	943.3449098294636	624.8978671869822	-211.1463303254624	906.9865771833183	478.7532968186699	-230.424533445495	nan	nan	nan	911.15394199319	392.0993425792547	-291.4876337300729	793.8234489911686	319.4559911754874	-226.0654231341914	796.6214723985913	210.9154954929955	-281.4600746928513	707.0917970069928	141.5608022692213	-257.3731825546654	nan	nan	nan	817.242636512512	63.15023712638664	-289.9333948074448	771.9479222160751	48.53843083341111	-242.5873804695737	630.4781265835871	147.607133772009	-302.2664532223534	
